<?xml version="1.0" encoding="utf-8"?>
<!-- Generator: Adobe Illustrator 19.2.1, SVG Export Plug-In . SVG Version: 6.00 Build 0)  -->
<svg version="1.1" id="Layer_1" xmlns="http://www.w3.org/2000/svg" xmlns:xlink="http://www.w3.org/1999/xlink" x="0px" y="0px"
	 viewBox="0 0 265.7 233.1" style="enable-background:new 0 0 265.7 233.1;" xml:space="preserve">
<style type="text/css">
	.st0{fill:#733A5C;}
	.st1{fill:#039996;}
	.st2{fill:#ED7506;}
	.st3{fill:#0082A5;}
	.st4{fill:#E4087E;}
	.st5{fill:none;}
</style>
<g id="XMLID_3_">
	<path id="XMLID_152_" d="M195.9,128.7c2.3,0,4.4,0,6.6,0c0.1,1.4,0.1,2.8,0.3,4.1c0.3,2,1.2,3,2.6,3c1.9,0.1,3.2-0.8,3.7-2.7
		c0.8-3.6,0.2-7-2.8-9.1c-1.8-1.3-3.5-2.5-5.2-3.8c-4.9-3.7-6.2-8.6-4.6-14.8c1-3.8,4-6.1,8-6.5c1.5-0.1,3.1-0.2,4.5,0.1
		c4,0.7,6.7,4,6.9,8.3c0.1,1.4,0,2.8,0,4.3c-2.2,0-4.3,0-6.5,0c0-0.5-0.1-1.1-0.1-1.6c-0.1-1-0.1-1.9-0.2-2.9
		c-0.4-1.8-1.7-2.9-3.3-2.8c-1.5,0.1-2.8,1.3-3,3c-0.4,2.9,0,5.5,2.6,7.3c1.5,1,3,2.2,4.3,3.4c1.6,1.5,3.2,3,4.6,4.7
		c1.2,1.4,1.7,3.2,1.6,5.1c-0.1,1.8,0,3.5-0.2,5.3c-0.7,5.4-4.1,8.3-9.5,8.3c-1.6,0-3.3-0.3-4.8-0.8c-3.4-1.2-5.2-3.8-5.6-7.3
		C195.7,131.9,195.9,130.4,195.9,128.7z"/>
	<g id="XMLID_2_">
		<path id="XMLID_161_" d="M55.8,93.8c-1.6,0-3,0-4.6,0C55,81,61.5,69.9,70.7,60.4c14.7-15.2,32.7-23.8,53.9-25.2
			c44.3-2.9,76.2,28.1,84.5,58.7c-1.4,0-2.7,0.1-4.1,0c-0.3,0-0.6-0.6-0.8-1c-2.5-7.5-6-14.5-10.7-20.8
			c-12.9-17.5-30.1-28.3-51.6-31.7c-37.3-5.9-73.7,16.4-85.7,52.4C56.1,93.1,56,93.4,55.8,93.8z"/>
		<path id="XMLID_158_" d="M186.7,121.5c2.2,6.5,4.4,13,6.7,19.6c-2.3,0-4.4,0-6.5,0c-0.3,0-0.7-0.6-0.8-1c-1.6-5.3-3.2-10.6-4.7-16
			c-0.3-1-0.7-1.5-1.8-1.3c-0.7,0.1-1.4,0-2.3,0c0,6.1,0,12.1,0,18.2c-2.2,0-4.2,0-6.3,0c0-13.9,0-27.8,0-41.9c0.4,0,0.8,0,1.2,0
			c3.2,0,6.4,0,9.6,0c4.9,0,7.9,2.3,9.1,7c0.8,3,0.8,6,0.1,9C190.6,117.8,189.2,120.1,186.7,121.5z M177.4,117.4c1.2,0,2.2,0,3.2,0
			c2.1,0,3.3-0.8,3.9-2.8c0.7-2.1,0.7-4.3,0-6.4c-0.5-1.7-1.6-2.8-3.5-3c-1-0.1-1.9-0.1-2.9,0c-0.3,0-0.7,0.4-0.7,0.7
			C177.4,109.7,177.4,113.5,177.4,117.4z"/>
		<path id="XMLID_157_" d="M144,99.2c2.3,0,4.4,0,6.7,0c0,0.5,0,1,0,1.5c0,9.9,0,19.8,0,29.7c0,1.2,0.3,2.5,0.7,3.6
			c0.5,1.4,1.7,2,3.2,1.9c1.4,0,2.4-0.7,2.8-2c0.4-1.2,0.6-2.5,0.7-3.7c0.1-9.8,0-19.5,0-29.3c0-0.5,0-1,0-1.7c2.2,0,4.4,0,6.8,0
			c0,0.4,0,0.8,0,1.2c0,9.9,0.1,19.8-0.1,29.6c0,2-0.4,4.1-1.2,5.9c-1.5,3.8-4.7,5.5-8.7,5.6c-4.2,0.1-7.6-1.2-9.4-5.2
			c-0.8-1.8-1.4-4-1.5-6c-0.1-10.2-0.1-20.4-0.1-30.6C144,99.7,144,99.5,144,99.2z"/>
		<path id="XMLID_154_" d="M92.4,141.1c-2.4,0-4.6,0-6.9,0c-0.4-2.3-0.9-4.6-1.2-6.9c-0.1-0.7-0.4-1-1.1-1c-2.3,0-4.6,0-7,0
			c-0.7,0-1,0.2-1.1,0.9c-0.4,2.3-0.8,4.6-1.2,6.9c-2.2,0-4.4,0-6.8,0c2.9-14,5.9-27.9,8.8-41.9c2.6,0,5.2,0,7.9,0
			C86.6,113.1,89.5,127,92.4,141.1z M79.8,109.5c-0.1,0-0.2,0-0.2,0c-1.1,6-2.2,11.9-3.3,17.9c2.3,0,4.5,0,6.7,0
			C82,121.4,80.9,115.4,79.8,109.5z"/>
		<path id="XMLID_153_" d="M58.5,111.6c-0.1-1.3-0.1-2.6-0.2-3.9c-0.2-2.5-2.4-4-4.4-3.1c-0.5,0.3-1.1,0.7-1.4,1.2
			c-1.2,1.9-0.8,6,0.8,7.5c1.7,1.5,3.6,2.9,5.2,4.4c1.8,1.6,3.5,3.4,5.1,5.2c1.1,1.3,1.6,3,1.5,4.8c-0.1,1.9,0.1,3.9-0.2,5.7
			c-0.8,5.2-4.1,7.9-9.3,7.9c-1.6,0-3.2-0.2-4.7-0.7c-3.3-1-5.2-3.4-5.7-6.8c-0.2-1.7,0-3.5,0-5.3c2.1,0,4.3,0,6.6,0
			c0.1,1.3,0.1,2.7,0.2,4c0.3,2.4,1.8,3.5,4,3c1.4-0.4,2.2-1.4,2.5-2.8c0.7-3.7,0-7-3.3-9.3c-1.7-1.2-3.4-2.4-5-3.7
			c-5.4-4-5.9-10.1-4.1-15.3c1.2-3.6,4-5.3,7.6-5.7c1.5-0.2,3.1-0.2,4.7,0.1c3.9,0.7,6.7,3.9,6.9,8c0.1,1.5,0,3,0,4.7
			C62.9,111.6,60.8,111.6,58.5,111.6z"/>
		<path id="XMLID_151_" d="M104.6,130.7c1.9-10.2,3.7-20.4,5.5-30.5c0.2-0.9,0.5-1.1,1.3-1.1c1.9,0.1,3.8,0,5.7,0
			c-0.9,4.4-1.8,8.6-2.7,12.9c-2,9.4-4,18.8-5.9,28.1c-0.2,0.8-0.4,1-1.2,1c-2.3,0-4.5,0-6.9,0c-2.9-14-5.7-28-8.6-42
			c2.4,0,4.6,0,6.9,0c1.9,10.5,3.8,21.1,5.7,31.6C104.4,130.7,104.5,130.7,104.6,130.7z"/>
		<path id="XMLID_150_" d="M127.7,135.1c3.8,0,7.5,0,11.3,0c0,2,0,4,0,6c-6,0-12,0-18,0c0-14,0-27.8,0-41.8c6,0,11.9,0,18,0
			c0,1.9,0,3.9,0,6c-3.8,0-7.5,0-11.3,0c0,3.5,0,6.8,0,10.3c2.9,0,5.9,0,8.9,0c0,2.1,0,4,0,6.1c-2.9,0-5.9,0-8.9,0
			C127.7,126.1,127.7,130.5,127.7,135.1z"/>
		<path id="XMLID_149_" d="M162.9,76c-1.3,3.8-2.5,7.6-3.8,11.3c-0.4,1.3-1.3,1.7-2.5,1.3c-0.3-0.1-0.5-0.6-0.6-0.9
			c-1.3-3.9-2.5-7.7-3.8-11.6c-0.1-0.3-0.2-0.6-0.6-0.9c0,6,0,11.9,0,18c-1.4,0-2.7,0-4,0c0-9.7,0-19.3,0-29.2c1.6,0,3.2,0,4.8,0
			c0.3,0,0.6,0.5,0.7,0.9c1.4,4.9,2.7,9.8,4.1,14.8c0.1,0.4,0.2,0.7,0.5,1.4c0.2-0.8,0.4-1.2,0.5-1.6c1.3-4.8,2.6-9.6,3.8-14.5
			c0.2-0.8,0.6-1.1,1.4-1c1.3,0.1,2.5,0,3.9,0c0,9.8,0,19.4,0,29.1c-1.3,0-2.6,0-4,0c0-5.7,0-11.4,0-17.1C163.1,76,163,76,162.9,76z
			"/>
		<path id="XMLID_146_" d="M103.2,79.6c1.5,4.5,3.1,9,4.6,13.6c-1.6,0-3,0-4.4,0c-0.3,0-0.6-0.5-0.7-0.9c-1-3.3-1.9-6.6-2.9-9.9
			c-0.6-2.2-0.6-2.2-3.1-1.8c0,4.1,0,8.3,0,12.5c-1.5,0-2.9,0-4.4,0c0-9.7,0-19.3,0-29c3.2,0,6.4-0.2,9.5,0.1
			c2.1,0.2,3.5,1.9,4.2,3.9c0.8,2.5,0.8,5,0.2,7.6C105.7,77.3,104.7,78.6,103.2,79.6z M96.8,76.6c2.5,0.5,3.7,0.1,4.5-1.1
			c1-1.6,0.9-4.8-0.1-6.2c-1.2-1.6-2.8-1.1-4.3-1.1C96.8,71.1,96.8,73.8,96.8,76.6z"/>
		<path id="XMLID_143_" d="M124.8,78.6c0,2.5,0,5,0,7.4c0,5.1-4.4,8.5-9.4,7.2c-2.9-0.8-4.7-3.2-4.7-6.5c-0.1-5.3-0.1-10.6,0-15.8
			c0.2-6.8,5.4-8,9.5-6.9c2.8,0.8,4.5,3.3,4.6,6.7C124.8,73.4,124.8,76,124.8,78.6z M115.1,78.6C115.1,78.6,115.1,78.6,115.1,78.6
			c0,2.8,0,5.5,0,8.3c0,1.8,1,2.7,2.7,2.6c1.6-0.1,2.6-1.2,2.6-3.1c0-5.2,0-10.4,0-15.6c0-0.4,0-0.7-0.1-1.1
			c-0.3-1.4-1.1-2.1-2.5-2.1c-1.7,0-2.6,0.9-2.6,2.7C115.1,73.1,115.1,75.9,115.1,78.6z"/>
		<path id="XMLID_140_" d="M129.1,78.8c0-2.6,0-5.3,0-7.9c0.1-5.3,4.3-8.4,9.4-6.9c2.8,0.8,4.6,3.3,4.6,6.8c0.1,5.2,0.1,10.4,0,15.6
			c-0.1,5.3-5.5,8.7-10.4,6.5c-2.5-1.2-3.6-3.4-3.7-6C129,84.2,129.1,81.5,129.1,78.8z M138.8,78.6c0-2.7,0-5.4,0-8
			c0-1.9-0.9-2.9-2.5-2.9c-1.7,0-2.7,1-2.7,2.9c0,1.4,0,2.7,0,4.1c0,4,0,8,0,12c0,2.1,1.2,3.1,3.1,2.9c1.3-0.2,2.2-1.3,2.2-2.9
			C138.8,84,138.8,81.3,138.8,78.6z"/>
		<path id="XMLID_139_" d="M59.7,93.7c8.5-27,35.6-51,70.8-50.8c35.7,0.1,62.1,24.9,70.2,50.8c-0.9,0.4-1-0.2-1.3-0.8
			c-2.4-6.7-5.7-13-9.9-18.8c-12.2-16.3-28.3-26.3-48.4-29.3c-34.9-5.2-68.1,14.9-80,48C60.8,93.3,60.7,94.1,59.7,93.7z"/>
		<path id="XMLID_138_" class="st0" d="M120.2,162.7c0,2.3-2,4.2-4.3,4.2c-2.4,0-4.4-2-4.4-4.3c0-2.4,2-4.2,4.5-4.2
			C118.3,158.4,120.2,160.3,120.2,162.7z"/>
		<path id="XMLID_11_" class="st1" d="M107,162.7c0,2.3-2,4.2-4.3,4.2c-2.4,0-4.4-2-4.4-4.3c0-2.4,2-4.2,4.5-4.2
			C105.1,158.4,107,160.3,107,162.7z"/>
		<path id="XMLID_137_" class="st2" d="M129,166.8c-2.3-0.1-4.2-2-4.2-4.2c0.1-2.3,2.1-4.2,4.4-4.1c2.4,0,4.2,2,4.2,4.3
			C133.3,165.2,131.5,166.9,129,166.8z"/>
		<path id="XMLID_8_" class="st3" d="M142.2,166.8c-2.3-0.1-4.2-2-4.2-4.2c0.1-2.3,2.1-4.2,4.4-4.1c2.4,0,4.2,2,4.2,4.3
			C146.6,165.2,144.7,166.9,142.2,166.8z"/>
		<path id="XMLID_10_" class="st4" d="M155.5,166.8c-2.3-0.1-4.2-2-4.2-4.2c0.1-2.3,2.1-4.2,4.4-4.1c2.4,0,4.2,2,4.2,4.3
			C159.8,165.2,158,166.9,155.5,166.8z"/>
		<path id="XMLID_133_" class="st5" d="M96.8,76.6c0-2.7,0-5.5,0-8.3c1.6,0,3.2-0.5,4.3,1.1c1.1,1.4,1.1,4.6,0.1,6.2
			C100.5,76.7,99.3,77,96.8,76.6z"/>
		<path id="XMLID_131_" class="st5" d="M138.8,78.6c0,2.7,0,5.4,0,8c0,1.6-0.9,2.7-2.2,2.9c-1.9,0.3-3.1-0.8-3.1-2.9c0-4,0-8,0-12
			c0-1.4,0-2.7,0-4.1c0.1-2,1-3,2.7-2.9c1.7,0,2.5,1,2.5,2.9C138.8,73.3,138.8,75.9,138.8,78.6z"/>
		<g id="XMLID_12_">
			<path id="XMLID_29_" class="st5" d="M76,172.5c12.2,11.4,26.6,18.3,43.2,20.5c32,4.2,63.1-11.7,78.5-40c0.2-0.3,0.3-0.6,0.6-1.2
				c-1.3,0-2.4-0.1-3.4,0c-0.4,0-0.8,0.5-1.1,0.9c-6.1,10.5-14.2,19.1-24.5,25.6c-14.1,9-29.6,13-46.3,11.4
				c-26.3-2.6-45.8-15.6-58.9-38.2h-4C64.3,159.5,69.6,166.4,76,172.5z"/>
			<path id="XMLID_30_" d="M220.8,148.9c-28.6,0-81.6,0-126.1-0.1v2.8h-2.4c36.7,0.1,79.5,0.2,100.8,0.2c-0.3,0.5-0.4,0.9-0.6,1.2
				c-20.2,34.4-64.5,46.3-99.2,26.7c-12-6.8-21.3-16.2-28-28h-1.1c13.1,22.6,32.6,35.6,58.9,38.2c16.7,1.6,32.1-2.4,46.3-11.4
				c10.2-6.5,18.4-15.1,24.5-25.6c0.2-0.4,0.7-0.9,1.1-0.9c1.1-0.1,2.1,0,3.4,0c-0.3,0.5-0.4,0.9-0.6,1.2
				c-15.4,28.3-46.6,44.1-78.5,40c-16.6-2.2-31-9.1-43.2-20.5c-6.5-6-11.7-13-15.8-20.8h-5c4.6,9.6,10.8,18,18.8,25.1
				c20.7,18.3,44.9,25.1,71.9,19.6c25.7-5.2,44.6-20.2,56.9-43.4c0.4-0.8,0.9-1.1,1.8-1.1c4.3,0.1,8.6,0,13,0c2.7,0,2.7,0,3.2-2.7
				C220.9,149.1,220.8,149,220.8,148.9z"/>
		</g>
	</g>
</g>
</svg>
