<?xml version="1.0" encoding="utf-8"?>
<!-- Generator: Adobe Illustrator 19.2.1, SVG Export Plug-In . SVG Version: 6.00 Build 0)  -->
<svg version="1.1" id="Layer_1" xmlns="http://www.w3.org/2000/svg" xmlns:xlink="http://www.w3.org/1999/xlink" x="0px" y="0px"
	 viewBox="0 0 265.7 233.1" style="enable-background:new 0 0 265.7 233.1;" xml:space="preserve">
<style type="text/css">
	.st0{fill:#FFFFFF;}
	.st1{fill:#733A5C;}
	.st2{fill:#039996;}
	.st3{fill:#ED7506;}
	.st4{fill:#0082A5;}
	.st5{fill:#E4087E;}
	.st6{fill:none;}
</style>
<g id="XMLID_13_">
	<g id="XMLID_20_">
		<path id="XMLID_74_" class="st0" d="M57.7,93.5c-1.6,0-3,0-4.6,0c3.8-12.8,10.3-23.9,19.5-33.4c14.7-15.2,32.7-23.8,53.9-25.2
			c44.3-2.9,76.2,28.1,84.5,58.7c-1.4,0-2.7,0.1-4.1,0c-0.3,0-0.6-0.6-0.8-1c-2.5-7.5-6-14.5-10.7-20.8
			c-12.9-17.5-30.1-28.3-51.6-31.7C106.5,34.1,70,56.5,58,92.5C57.9,92.8,57.8,93.1,57.7,93.5z"/>
		<path id="XMLID_75_" class="st0" d="M197.7,128.5c2.3,0,4.4,0,6.6,0c0.1,1.4,0.1,2.8,0.3,4.1c0.3,2,1.2,3,2.6,3
			c1.9,0.1,3.2-0.8,3.7-2.7c0.8-3.6,0.2-7-2.8-9.1c-1.8-1.3-3.5-2.5-5.2-3.8c-4.9-3.7-6.2-8.6-4.6-14.8c1-3.8,4-6.1,8-6.5
			c1.5-0.1,3.1-0.2,4.5,0.1c4,0.7,6.7,4,6.9,8.3c0.1,1.4,0,2.8,0,4.3c-2.2,0-4.3,0-6.5,0c0-0.5-0.1-1.1-0.1-1.6
			c-0.1-1-0.1-1.9-0.2-2.9c-0.4-1.8-1.7-2.9-3.3-2.8c-1.5,0.1-2.8,1.3-3,3c-0.4,2.9,0,5.5,2.6,7.3c1.5,1,3,2.2,4.3,3.4
			c1.6,1.5,3.2,3,4.6,4.7c1.2,1.4,1.7,3.2,1.6,5.1c-0.1,1.8,0,3.5-0.2,5.3c-0.7,5.4-4.1,8.3-9.5,8.3c-1.6,0-3.3-0.3-4.8-0.8
			c-3.4-1.2-5.2-3.8-5.6-7.3C197.6,131.7,197.7,130.1,197.7,128.5z"/>
		<path id="XMLID_71_" class="st0" d="M188.5,121.3c2.2,6.5,4.4,13,6.7,19.6c-2.3,0-4.4,0-6.5,0c-0.3,0-0.7-0.6-0.8-1
			c-1.6-5.3-3.2-10.6-4.7-16c-0.3-1-0.7-1.5-1.8-1.3c-0.7,0.1-1.4,0-2.3,0c0,6.1,0,12.1,0,18.2c-2.2,0-4.2,0-6.3,0
			c0-13.9,0-27.8,0-41.9c0.4,0,0.8,0,1.2,0c3.2,0,6.4,0,9.6,0c4.9,0,7.9,2.3,9.1,7c0.8,3,0.8,6,0.1,9
			C192.4,117.6,191.1,119.8,188.5,121.3z M179.3,117.2c1.2,0,2.2,0,3.2,0c2.1,0,3.3-0.8,3.9-2.8c0.7-2.1,0.7-4.3,0-6.4
			c-0.5-1.7-1.6-2.8-3.5-3c-1-0.1-1.9-0.1-2.9,0c-0.3,0-0.7,0.4-0.7,0.7C179.3,109.4,179.3,113.2,179.3,117.2z"/>
		<path id="XMLID_70_" class="st0" d="M145.8,98.9c2.3,0,4.4,0,6.7,0c0,0.5,0,1,0,1.5c0,9.9,0,19.8,0,29.7c0,1.2,0.3,2.5,0.7,3.6
			c0.5,1.4,1.7,2,3.2,1.9c1.4,0,2.4-0.7,2.8-2c0.4-1.2,0.6-2.5,0.7-3.7c0.1-9.8,0-19.5,0-29.3c0-0.5,0-1,0-1.7c2.2,0,4.4,0,6.8,0
			c0,0.4,0,0.8,0,1.2c0,9.9,0.1,19.8-0.1,29.6c0,2-0.4,4.1-1.2,5.9c-1.5,3.8-4.7,5.5-8.7,5.6c-4.2,0.1-7.6-1.2-9.4-5.2
			c-0.8-1.8-1.4-4-1.5-6c-0.1-10.2-0.1-20.4-0.1-30.6C145.8,99.4,145.8,99.2,145.8,98.9z"/>
		<path id="XMLID_67_" class="st0" d="M94.2,140.8c-2.4,0-4.6,0-6.9,0c-0.4-2.3-0.9-4.6-1.2-6.9c-0.1-0.7-0.4-1-1.1-1
			c-2.3,0-4.6,0-7,0c-0.7,0-1,0.2-1.1,0.9c-0.4,2.3-0.8,4.6-1.2,6.9c-2.2,0-4.4,0-6.8,0c2.9-14,5.9-27.9,8.8-41.9c2.6,0,5.2,0,7.9,0
			C88.5,112.8,91.3,126.8,94.2,140.8z M81.7,109.3c-0.1,0-0.2,0-0.2,0c-1.1,6-2.2,11.9-3.3,17.9c2.3,0,4.5,0,6.7,0
			C83.8,121.1,82.7,115.2,81.7,109.3z"/>
		<path id="XMLID_66_" class="st0" d="M60.4,111.4c-0.1-1.3-0.1-2.6-0.2-3.9c-0.2-2.5-2.4-4-4.4-3.1c-0.5,0.3-1.1,0.7-1.4,1.2
			c-1.2,1.9-0.8,6,0.8,7.5c1.7,1.5,3.6,2.9,5.2,4.4c1.8,1.6,3.5,3.4,5.1,5.2c1.1,1.3,1.6,3,1.5,4.8c-0.1,1.9,0.1,3.9-0.2,5.7
			c-0.8,5.2-4.1,7.9-9.3,7.9c-1.6,0-3.2-0.2-4.7-0.7c-3.3-1-5.2-3.4-5.7-6.8c-0.2-1.7,0-3.5,0-5.3c2.1,0,4.3,0,6.6,0
			c0.1,1.3,0.1,2.7,0.2,4c0.3,2.4,1.8,3.5,4,3c1.4-0.4,2.2-1.4,2.5-2.8c0.7-3.7,0-7-3.3-9.3c-1.7-1.2-3.4-2.4-5-3.7
			c-5.4-4-5.9-10.1-4.1-15.3c1.2-3.6,4-5.3,7.6-5.7c1.5-0.2,3.1-0.2,4.7,0.1c3.9,0.7,6.7,3.9,6.9,8c0.1,1.5,0,3,0,4.7
			C64.7,111.4,62.6,111.4,60.4,111.4z"/>
		<path id="XMLID_65_" class="st0" d="M106.4,130.4c1.9-10.2,3.7-20.4,5.5-30.5c0.2-0.9,0.5-1.1,1.3-1.1c1.9,0.1,3.8,0,5.7,0
			c-0.9,4.4-1.8,8.6-2.7,12.9c-2,9.4-4,18.8-5.9,28.1c-0.2,0.8-0.4,1-1.2,1c-2.3,0-4.5,0-6.9,0c-2.9-14-5.7-28-8.6-42
			c2.4,0,4.6,0,6.9,0c1.9,10.5,3.8,21.1,5.7,31.6C106.2,130.5,106.3,130.5,106.4,130.4z"/>
		<path id="XMLID_64_" class="st0" d="M129.6,134.8c3.8,0,7.5,0,11.3,0c0,2,0,4,0,6c-6,0-12,0-18,0c0-14,0-27.8,0-41.8
			c6,0,11.9,0,18,0c0,1.9,0,3.9,0,6c-3.8,0-7.5,0-11.3,0c0,3.5,0,6.8,0,10.3c2.9,0,5.9,0,8.9,0c0,2.1,0,4,0,6.1c-2.9,0-5.9,0-8.9,0
			C129.6,125.9,129.6,130.2,129.6,134.8z"/>
		<path id="XMLID_63_" class="st0" d="M164.8,75.7c-1.3,3.8-2.5,7.6-3.8,11.3c-0.4,1.3-1.3,1.7-2.5,1.3c-0.3-0.1-0.5-0.6-0.6-0.9
			c-1.3-3.9-2.5-7.7-3.8-11.6c-0.1-0.3-0.2-0.6-0.6-0.9c0,6,0,11.9,0,18c-1.4,0-2.7,0-4,0c0-9.7,0-19.3,0-29.2c1.6,0,3.2,0,4.8,0
			c0.3,0,0.6,0.5,0.7,0.9c1.4,4.9,2.7,9.8,4.1,14.8c0.1,0.4,0.2,0.7,0.5,1.4c0.2-0.8,0.4-1.2,0.5-1.6c1.3-4.8,2.6-9.6,3.8-14.5
			c0.2-0.8,0.6-1.1,1.4-1c1.3,0.1,2.5,0,3.9,0c0,9.8,0,19.4,0,29.1c-1.3,0-2.6,0-4,0c0-5.7,0-11.4,0-17.1
			C165,75.7,164.9,75.7,164.8,75.7z"/>
		<path id="XMLID_60_" class="st0" d="M105,79.3c1.5,4.5,3.1,9,4.6,13.6c-1.6,0-3,0-4.4,0c-0.3,0-0.6-0.5-0.7-0.9
			c-1-3.3-1.9-6.6-2.9-9.9c-0.6-2.2-0.6-2.2-3.1-1.8c0,4.1,0,8.3,0,12.5c-1.5,0-2.9,0-4.4,0c0-9.7,0-19.3,0-29
			c3.2,0,6.4-0.2,9.5,0.1c2.1,0.2,3.5,1.9,4.2,3.9c0.8,2.5,0.8,5,0.2,7.6C107.5,77,106.6,78.3,105,79.3z M98.6,76.3
			c2.5,0.5,3.7,0.1,4.5-1.1c1-1.6,0.9-4.8-0.1-6.2c-1.2-1.6-2.8-1.1-4.3-1.1C98.6,70.8,98.6,73.6,98.6,76.3z"/>
		<path id="XMLID_57_" class="st0" d="M126.6,78.3c0,2.5,0,5,0,7.4c0,5.1-4.4,8.5-9.4,7.2c-2.9-0.8-4.7-3.2-4.7-6.5
			c-0.1-5.3-0.1-10.6,0-15.8c0.2-6.8,5.4-8,9.5-6.9c2.8,0.8,4.5,3.3,4.6,6.7C126.6,73.1,126.6,75.7,126.6,78.3z M117,78.4
			C117,78.4,117,78.4,117,78.4c0,2.8,0,5.5,0,8.3c0,1.8,1,2.7,2.7,2.6c1.6-0.1,2.6-1.2,2.6-3.1c0-5.2,0-10.4,0-15.6
			c0-0.4,0-0.7-0.1-1.1c-0.3-1.4-1.1-2.1-2.5-2.1c-1.7,0-2.6,0.9-2.6,2.7C116.9,72.8,117,75.6,117,78.4z"/>
		<path id="XMLID_54_" class="st0" d="M131,78.6c0-2.6,0-5.3,0-7.9c0.1-5.3,4.3-8.4,9.4-6.9c2.8,0.8,4.6,3.3,4.6,6.8
			c0.1,5.2,0.1,10.4,0,15.6c-0.1,5.3-5.5,8.7-10.4,6.5c-2.5-1.2-3.6-3.4-3.7-6C130.9,83.9,131,81.3,131,78.6z M140.6,78.4
			c0-2.7,0-5.4,0-8c0-1.9-0.9-2.9-2.5-2.9c-1.7,0-2.7,1-2.7,2.9c0,1.4,0,2.7,0,4.1c0,4,0,8,0,12c0,2.1,1.2,3.1,3.1,2.9
			c1.3-0.2,2.2-1.3,2.2-2.9C140.6,83.7,140.6,81,140.6,78.4z"/>
		<path id="XMLID_53_" class="st0" d="M61.5,93.5c8.5-27,35.6-51,70.8-50.8c35.7,0.1,62.1,24.9,70.2,50.8c-0.9,0.4-1-0.2-1.3-0.8
			c-2.4-6.7-5.7-13-9.9-18.8c-12.2-16.3-28.3-26.3-48.4-29.3c-34.9-5.2-68.1,14.9-80,48C62.6,93.1,62.6,93.8,61.5,93.5z"/>
		<path id="XMLID_50_" class="st1" d="M122.1,162.4c0,2.3-2,4.2-4.3,4.2c-2.4,0-4.4-2-4.4-4.3c0-2.4,2-4.2,4.5-4.2
			C120.2,158.2,122.1,160.1,122.1,162.4z"/>
		<path id="XMLID_47_" class="st2" d="M108.8,162.4c0,2.3-2,4.2-4.3,4.2c-2.4,0-4.4-2-4.4-4.3c0-2.4,2-4.2,4.5-4.2
			C106.9,158.2,108.8,160.1,108.8,162.4z"/>
		<path id="XMLID_43_" class="st3" d="M130.8,166.6c-2.3-0.1-4.2-2-4.2-4.2c0.1-2.3,2.1-4.2,4.4-4.1c2.4,0,4.2,2,4.2,4.3
			C135.2,164.9,133.3,166.6,130.8,166.6z"/>
		<path id="XMLID_31_" class="st4" d="M144.1,166.6c-2.3-0.1-4.2-2-4.2-4.2c0.1-2.3,2.1-4.2,4.4-4.1c2.4,0,4.2,2,4.2,4.3
			C148.4,164.9,146.6,166.6,144.1,166.6z"/>
		<path id="XMLID_26_" class="st5" d="M157.3,166.6c-2.3-0.1-4.2-2-4.2-4.2c0.1-2.3,2.1-4.2,4.4-4.1c2.4,0,4.2,2,4.2,4.3
			C161.7,164.9,159.8,166.6,157.3,166.6z"/>
		<path id="XMLID_25_" class="st6" d="M98.6,76.3c0-2.7,0-5.5,0-8.3c1.6,0,3.2-0.5,4.3,1.1c1.1,1.4,1.1,4.6,0.1,6.2
			C102.4,76.4,101.1,76.8,98.6,76.3z"/>
		<path id="XMLID_24_" class="st6" d="M140.6,78.4c0,2.7,0,5.4,0,8c0,1.6-0.9,2.7-2.2,2.9c-1.9,0.3-3.1-0.8-3.1-2.9c0-4,0-8,0-12
			c0-1.4,0-2.7,0-4.1c0.1-2,1-3,2.7-2.9c1.7,0,2.5,1,2.5,2.9C140.6,73,140.6,75.7,140.6,78.4z"/>
		<g id="XMLID_21_">
			<path id="XMLID_23_" class="st0" d="M77.9,172.2c12.2,11.4,26.6,18.3,43.2,20.5c32,4.2,63.1-11.7,78.5-40
				c0.2-0.3,0.3-0.6,0.6-1.2c-1.3,0-2.4-0.1-3.4,0c-0.4,0-0.8,0.5-1.1,0.9c-6.1,10.5-14.2,19.1-24.5,25.6c-14.1,9-29.6,13-46.3,11.4
				C98.7,187,79.2,174,66.1,151.4h-4C66.2,159.2,71.4,166.2,77.9,172.2z"/>
			<path id="XMLID_22_" class="st0" d="M222.6,148.7c-28.6,0-81.6,0-126.1-0.1v2.8h-2.4c36.7,0.1,79.5,0.2,100.8,0.2
				c-0.3,0.5-0.4,0.9-0.6,1.2c-20.2,34.4-64.5,46.3-99.2,26.7c-12-6.8-21.3-16.2-28-28h-1.1C79.2,174,98.7,187,125,189.6
				c16.7,1.6,32.1-2.4,46.3-11.4c10.2-6.5,18.4-15.1,24.5-25.6c0.2-0.4,0.7-0.9,1.1-0.9c1.1-0.1,2.1,0,3.4,0
				c-0.3,0.5-0.4,0.9-0.6,1.2c-15.4,28.3-46.6,44.1-78.5,40c-16.6-2.2-31-9.1-43.2-20.5c-6.5-6-11.7-13-15.8-20.8h-5
				c4.6,9.6,10.8,18,18.8,25.1c20.7,18.3,44.9,25.1,71.9,19.6c25.7-5.2,44.6-20.2,56.9-43.4c0.4-0.8,0.9-1.1,1.8-1.1
				c4.3,0.1,8.6,0,13,0c2.7,0,2.7,0,3.2-2.7C222.7,148.8,222.7,148.7,222.6,148.7z"/>
		</g>
	</g>
</g>
</svg>
